<svg xmlns="http://www.w3.org/2000/svg" viewBox="0 -0.5 32 32" shape-rendering="crispEdges">
    <metadata>Made with Pixels to Svg https://codepen.io/shshaw/pen/XbxvNj</metadata>
    <path stroke="#cbdbfc" d="M2 4h28M2 5h1M29 5h1M0 6h3M29 6h3M0 7h1M31 7h1M0 8h1M31 8h1M0 9h1M31 9h1M0 10h1M31 10h1M0 11h1M31 11h1M0 12h1M31 12h1M0 13h1M31 13h1M0 14h1M31 14h1M0 15h1M31 15h1M0 16h1M31 16h1M0 17h1M31 17h1M0 18h1M31 18h1M0 19h1M31 19h1M0 20h1M31 20h1M0 21h1M31 21h1M0 22h1M31 22h1M0 23h1M31 23h1M0 24h1M31 24h1M0 25h3M29 25h3M2 26h1M29 26h1M2 27h28" />
    <path stroke="#ffffff" d="M3 5h26M3 6h26M1 7h30M1 8h30M1 9h30M1 10h6M8 10h1M10 10h6M21 10h1M25 10h6M1 11h7M9 11h9M19 11h3M23 11h2M26 11h5M1 12h6M12 12h6M19 12h3M23 12h2M26 12h5M1 13h6M12 13h6M19 13h3M23 13h2M26 13h5M1 14h6M12 14h6M19 14h3M23 14h2M26 14h5M1 15h6M12 15h6M19 15h3M23 15h2M26 15h5M1 16h15M21 16h1M25 16h6M1 17h6M12 17h19M1 18h5M13 18h18M1 19h5M13 19h3M24 19h1M26 19h5M1 20h5M13 20h18M1 21h5M13 21h3M17 21h1M21 21h1M26 21h5M1 22h30M1 23h30M1 24h30M3 25h26M3 26h26" />
    <path stroke="#000000" d="M7 10h1M9 10h1M16 10h5M22 10h3M8 11h1M18 11h1M22 11h1M25 11h1M7 12h5M18 12h1M22 12h1M25 12h1M7 13h5M18 13h1M22 13h1M25 13h1M7 14h5M18 14h1M22 14h1M25 14h1M7 15h5M18 15h1M22 15h1M25 15h1M16 16h5M22 16h3M7 17h5M6 18h7M6 19h7M16 19h8M25 19h1M6 20h7M6 21h7M16 21h1M18 21h3M22 21h4" />
</svg>